<?xml version="1.0" encoding="UTF-8" standalone="no"?>
<!-- Created with Inkscape (http://www.inkscape.org/) -->

<svg
   width="193.54834mm"
   height="236.18335mm"
   viewBox="0 0 193.54834 236.18335"
   version="1.1"
   id="svg1"
   xmlns="http://www.w3.org/2000/svg"
   xmlns:svg="http://www.w3.org/2000/svg">
  <defs
     id="defs1" />
  <g
     id="layer1"
     transform="translate(-6.0325762,-34.913058)">
    <path
       class="st2"
       d="m 167.08298,233.88979 c 0,0 2.86845,5.94115 2.52966,7.82894 -0.33878,1.88777 -2.27556,-0.66293 -2.52966,1.22484 -0.25407,1.88777 1.18014,3.58616 -0.42347,6.69878 -1.60361,3.11265 -2.86844,1.31956 -2.95315,4.43219 -0.0846,3.11262 -1.77298,4.81101 -2.11177,6.22527 -0.33881,1.41425 -2.02711,5.75173 -4.04857,7.3554 -2.0271,1.60367 -2.86843,2.63911 -3.70975,0 -0.84133,-2.63912 -2.36025,-8.20776 -1.09543,-9.62202 1.26482,-1.41425 3.12251,-1.41425 2.52964,-4.52687 -0.59289,-3.11265 0.92603,-8.11306 1.43421,-8.49187 0.5082,-0.37883 1.26484,0.0947 3.29192,-1.03544 2.0271,-1.13015 2.61435,-2.2666 3.54037,-3.77558 0.92603,-1.50896 1.01073,-3.11262 0.92603,-4.24275 -0.079,-1.13015 2.1965,-2.98005 2.61997,-2.07089 z"
       id="path187"
       style="fill:#5b3832;fill-opacity:1;stroke-width:0.597075" />
  </g>
  <g
     id="layer2"
     transform="translate(-6.0325762,-34.913058)">
    <g
       id="OBJECTS"
       transform="matrix(0.71597087,0,0,0.73030692,-53.084222,-45.750835)">
      <g
         id="g44">
        <g
           id="g38"
           transform="translate(-32.276924,51.40399)">
          <g
             id="g15">
            <g
               id="g4">
              <g
                 id="g2">
                <path
                   class="st1"
                   d="m 277.92,84.07 c 0,0 -2.21,0.68 -3.74,-0.85 -1.53,-1.53 -0.51,-3.91 -3.4,-4.25 -2.89,-0.34 -7.66,1.02 -8.51,2.21 -0.85,1.19 -2.89,3.23 -2.21,4.59 0.68,1.36 2.21,2.55 0.51,3.91 -1.7,1.36 -2.89,4.59 -5.45,1.7 -2.55,-2.89 -8.68,-3.4 -9.7,-3.57 -1.02,-0.17 -2.89,-3.91 -3.57,-5.27 -0.68,-1.36 -3.91,-2.55 -5.44,-2.38 -1.53,0.17 -2.55,1.19 -4.42,0.51 -1.87,-0.68 -0.68,-3.74 -4.08,-4.08 -3.4,-0.34 -4.59,-1.87 -3.57,-2.72 1.02,-0.85 4.76,-0.68 2.72,-3.74 -2.04,-3.06 -3.74,-2.89 -2.55,-4.25 1.19,-1.36 2.55,-1.7 0.34,-3.74 -2.21,-2.04 -1.19,-3.91 -3.23,-2.72 -2.04,1.19 -2.55,4.42 -5.28,3.57 -2.72,-0.85 -5.45,-3.4 -7.32,-2.21 -1.87,1.19 -9.02,1.53 -11.4,1.7 -2.38,0.17 -5.79,0.68 -6.81,1.87 -1.02,1.19 -3.91,2.38 -6.29,2.55 -2.38,0.17 -3.23,0.85 -4.59,2.04 -1.36,1.19 1.02,2.38 -4.42,1.02 -5.44,-1.36 -7.66,-1.36 -9.02,-3.23 -1.36,-1.87 -4.59,-0.34 -4.59,2.21 0,2.55 -3.57,5.79 -5.79,7.15 -2.21,1.36 -9.36,7.49 -8.68,11.23 0.68,3.74 2.04,6.12 -0.17,7.83 -2.21,1.7 -6.81,7.15 -10.21,7.15 -3.4,0 -4.08,2.38 -4.08,3.91 0,1.53 -1.87,2.72 -4.08,4.08 -2.21,1.36 -1.19,4.93 -2.38,7.15 -1.19,2.21 -3.57,1.19 -3.57,3.06 0,1.87 1.87,3.4 -0.85,5.27 -2.72,1.87 -4.08,6.98 -2.72,8.51 1.36,1.53 2.38,2.38 1.53,4.25 -0.85,1.87 -1.36,0.34 -0.68,4.76 0.68,4.42 3.06,9.7 -0.68,12.59 -3.74,2.89 -6.12,3.4 -3.74,5.27 2.38,1.87 2.38,3.57 2.21,6.12 -0.17,2.55 0.85,8.34 2.89,8.51 2.04,0.17 1.99,-1.71 2.72,-1.02 0.67,0.62 -0.51,3.23 1.19,3.57 1.7,0.34 3.06,3.74 3.06,3.74 0,0 1.53,-0.68 3.23,2.38 1.7,3.06 -2.21,4.76 0.68,7.15 2.89,2.38 5.61,5.61 9.7,7.83 4.08,2.21 7.15,5.1 9.19,7.15 2.04,2.04 5.61,0.17 7.66,-0.85 2.04,-1.02 11.23,-2.21 14.12,-0.51 2.89,1.7 3.91,0.68 5.96,0.17 2.04,-0.51 5.61,-3.06 7.32,-2.38 1.7,0.68 2.89,1.7 4.76,-0.68 1.87,-2.38 7.32,-2.55 9.7,-2.38 2.38,0.17 5.45,2.72 6.12,5.1 0.68,2.38 3.23,3.91 5.27,3.57 2.04,-0.34 4.93,-1.7 6.29,-1.02 1.36,0.68 2.55,2.89 4.08,3.74 1.53,0.85 2.04,2.38 1.53,3.91 -0.51,1.53 -2.89,6.47 -2.04,8.17 0.85,1.7 0,2.04 -1.02,3.57 -1.02,1.53 -3.74,2.04 -1.87,5.1 1.87,3.06 6.12,9.53 9.19,12.59 3.06,3.06 4.08,8.17 4.76,11.06 0.68,2.89 3.74,4.94 4.25,6.98 0.51,2.04 -2.38,3.4 -1.7,6.64 0.68,3.23 2.55,7.83 1.87,10.21 -0.68,2.38 -2.38,2.55 -2.89,3.06 -0.51,0.51 -1.7,3.57 -1.7,5.44 0,1.87 -0.34,5.96 -1.53,7.66 -1.19,1.7 -3.4,3.57 -2.72,7.66 0.68,4.09 1.02,6.98 3.57,8.85 2.55,1.87 3.57,6.64 4.59,9.7 1.02,3.06 2.72,3.06 3.23,5.79 0.51,2.72 0.85,7.49 1.53,9.7 0.68,2.21 2.04,4.25 1.36,8 -0.68,3.74 2.72,9.87 5.45,11.4 2.72,1.53 1.87,4.42 3.23,6.64 1.36,2.21 2.89,3.06 2.55,6.12 -0.34,3.06 -2.55,2.55 -2.04,4.42 0.51,1.87 1.87,2.72 1.87,4.25 0,1.53 1.87,1.36 3.4,2.89 1.53,1.53 4.25,1.7 6.12,0.51 1.87,-1.19 4.59,-0.34 5.27,-0.34 0.68,0 1.02,-2.38 2.38,-2.38 1.36,0 2.55,-1.19 6.29,-0.34 3.74,0.85 6.12,-0.34 6.98,-0.68 0.85,-0.34 3.57,1.19 5.95,-0.68 2.38,-1.87 6.12,-8.85 8.51,-10.21 2.38,-1.36 6.3,-8.85 6.98,-10.21 0.68,-1.36 4.42,-2.04 4.59,-3.4 0.17,-1.36 3.57,-6.97 2.04,-9.53 -1.53,-2.55 1.53,-4.77 2.72,-5.28 1.19,-0.51 7.83,-2.89 7.83,-4.08 0,-1.19 -0.51,-3.4 0.17,-4.76 0.68,-1.36 -0.34,-6.29 -0.85,-8 -0.51,-1.7 -1.02,-7.15 -1.02,-7.15 0,0 1.02,-1.36 5.1,-3.74 4.08,-2.38 3.91,-4.59 5.1,-5.62 1.19,-1.02 7.32,-3.4 8.51,-3.91 1.19,-0.51 5.96,-5.78 5.45,-9.02 -0.51,-3.23 -2.72,-9.7 -2.21,-11.23 0.51,-1.53 -0.17,-5.45 0,-7.15 0.17,-1.7 -4.08,-4.08 -3.91,-4.77 0.17,-0.68 -0.17,-3.91 0.17,-5.27 0.34,-1.36 1.36,-3.74 1.53,-4.76 0.17,-1.02 -0.17,-1.7 -1.53,-3.57 -1.36,-1.87 -2.21,-6.12 0.17,-9.53 2.38,-3.4 6.12,-3.57 5.44,-6.64 -0.68,-3.06 0.34,-5.45 2.38,-5.45 2.04,0 2.21,0 3.4,-1.02 1.19,-1.02 5.27,-8.34 5.78,-8.51 0.51,-0.17 6.98,-7.31 10.04,-8.68 3.06,-1.36 11.91,-18.55 14.8,-24.67 2.89,-6.12 3.91,-10.21 4.08,-12.08 0.17,-1.87 0,-6.12 0,-6.12 0,0 -2.04,-0.17 -3.91,1.7 -1.87,1.87 -5.1,1.02 -8.34,1.53 -3.23,0.51 -4.42,1.36 -6.81,1.7 -2.38,0.34 -2.04,-1.36 -4.08,0.17 -2.04,1.53 -4.42,4.25 -5.27,1.19 -0.85,-3.06 -3.91,-3.57 -4.59,-4.42 -0.68,-0.85 2.55,0 1.19,-2.89 -1.36,-2.89 -5.79,-4.76 -6.3,-7.32 -0.51,-2.55 -1.7,-4.42 -4.42,-5.44 -2.72,-1.02 -5.44,-5.79 -5.79,-6.47 -0.34,-0.68 -0.34,-3.74 -1.7,-6.3 -1.36,-2.55 -3.23,-3.91 -3.23,-3.91 0,0 -3.06,-8 -3.4,-11.23 -0.34,-3.23 -1.7,-5.44 -3.4,-6.13 -1.7,-0.68 -3.74,-2.38 -3.57,-4.42 0.17,-2.04 -0.17,-3.57 -0.85,-4.93 -0.68,-1.36 -3.06,-4.59 -4.25,-7.66 -1.19,-3.06 -0.85,-4.42 -2.55,-5.95 -1.7,-1.53 -2.72,-3.23 -3.4,-4.76 -0.68,-1.53 -1.36,-2.55 -2.38,-3.06 -1.02,-0.51 -4.08,-1.7 -4.59,-4.42 -0.51,-2.72 -2.55,-4.76 -4.93,-3.4 -2.38,1.36 -3.23,2.89 -6.29,1.36 -3.06,-1.53 -3.74,-2.21 -6.12,-2.04 -2.38,0.17 -3.75,1.53 -4.59,0.51 -0.87,-1.03 -0.53,-2.9 -3.59,-2.22 z"
                   id="path1-4"
                   style="fill:#f3af27" />
                <path
                   class="st2"
                   d="m 359.75,179.74 c -0.66,0.48 -1.28,0.83 -1.81,0.82 -11.11,11.82 -26.54,10.66 -45.01,9.94 -13.18,-0.52 -35.78,7.53 -64.29,-4.52 -11.57,-4.89 -33.64,0.76 -48.51,0.7 -14.86,-0.06 -25.97,1.19 -42.49,-2.7 -23.14,-5.44 -26.56,0.48 -26.56,0.48 1.7,3.06 -2.21,4.76 0.68,7.15 2.89,2.38 5.61,5.61 9.7,7.83 4.08,2.21 7.15,5.1 9.19,7.15 2.04,2.04 5.61,0.17 7.66,-0.85 2.04,-1.02 11.23,-2.21 14.12,-0.51 2.89,1.7 3.91,0.68 5.96,0.17 2.04,-0.51 5.61,-3.06 7.32,-2.38 1.7,0.68 2.89,1.7 4.76,-0.68 1.87,-2.38 7.32,-2.55 9.7,-2.38 2.38,0.17 5.45,2.72 6.12,5.1 0.68,2.38 3.23,3.91 5.27,3.57 2.04,-0.34 4.93,-1.7 6.29,-1.02 1.36,0.68 2.55,2.89 4.08,3.74 1.53,0.85 2.04,2.38 1.53,3.91 -0.51,1.53 -2.89,6.47 -2.04,8.17 0.85,1.7 0,2.04 -1.02,3.57 -1.02,1.53 -3.74,2.04 -1.87,5.1 1.87,3.06 6.12,9.53 9.19,12.59 3.06,3.06 4.08,8.17 4.76,11.06 0.68,2.89 3.74,4.94 4.25,6.98 0.51,2.04 -2.38,3.4 -1.7,6.64 0.68,3.23 2.55,7.83 1.87,10.21 -0.68,2.38 -2.38,2.55 -2.89,3.06 -0.51,0.51 -1.7,3.57 -1.7,5.44 0,1.87 -0.34,5.96 -1.53,7.66 -1.19,1.7 -3.4,3.57 -2.72,7.66 0.68,4.09 1.02,6.98 3.57,8.85 2.55,1.87 3.57,6.64 4.59,9.7 1.02,3.06 2.72,3.06 3.23,5.79 0.51,2.72 0.85,7.49 1.53,9.7 0.68,2.21 2.04,4.25 1.36,8 -0.68,3.74 2.72,9.87 5.45,11.4 2.72,1.53 1.87,4.42 3.23,6.64 1.36,2.21 2.89,3.06 2.55,6.12 -0.34,3.06 -2.55,2.55 -2.04,4.42 0.51,1.87 1.87,2.72 1.87,4.25 0,1.53 1.87,1.36 3.4,2.89 1.53,1.53 4.25,1.7 6.12,0.51 1.87,-1.19 4.59,-0.34 5.27,-0.34 0.68,0 1.02,-2.38 2.38,-2.38 1.36,0 2.55,-1.19 6.29,-0.34 3.74,0.85 6.12,-0.34 6.98,-0.68 0.85,-0.34 3.57,1.19 5.95,-0.68 2.38,-1.87 6.12,-8.85 8.51,-10.21 2.38,-1.36 6.3,-8.85 6.98,-10.21 0.68,-1.36 4.42,-2.04 4.59,-3.4 0.17,-1.36 3.57,-6.97 2.04,-9.53 -1.53,-2.55 1.53,-4.77 2.72,-5.28 1.19,-0.51 7.83,-2.89 7.83,-4.08 0,-1.19 -0.51,-3.4 0.17,-4.76 0.68,-1.36 -0.34,-6.29 -0.85,-8 -0.51,-1.7 -1.02,-7.15 -1.02,-7.15 0,0 1.02,-1.36 5.1,-3.74 4.08,-2.38 3.91,-4.59 5.1,-5.62 1.19,-1.02 7.32,-3.4 8.51,-3.91 1.19,-0.51 5.96,-5.78 5.45,-9.02 -0.51,-3.23 -2.72,-9.7 -2.21,-11.23 0.51,-1.53 -0.17,-5.45 0,-7.15 0.17,-1.7 -4.08,-4.08 -3.91,-4.77 0.17,-0.68 -0.17,-3.91 0.17,-5.27 0.34,-1.36 1.36,-3.74 1.53,-4.76 0.17,-1.02 -0.17,-1.7 -1.53,-3.57 -1.36,-1.87 -2.21,-6.12 0.17,-9.53 2.38,-3.4 6.12,-3.57 5.44,-6.64 -0.68,-3.06 0.34,-5.45 2.38,-5.45 2.04,0 2.21,0 3.4,-1.02 1.19,-1.02 5.27,-8.34 5.78,-8.51 0.51,-0.17 6.98,-7.31 10.04,-8.68 3.06,-1.36 11.91,-18.55 14.8,-24.67 2.89,-6.12 3.91,-10.21 4.08,-12.08 0.17,-1.87 0,-6.12 0,-6.12 0,0 -2.04,-0.17 -3.91,1.7 -1.87,1.87 -5.1,1.02 -8.34,1.53 -3.23,0.51 -4.42,1.36 -6.81,1.7 -0.83,0.12 -1.33,-0.01 -1.72,-0.17 -1.9,-0.95 -3.14,1.42 -4.53,2.09 0.01,0 0.01,0 0,0 z"
                   id="path2"
                   style="fill:#949844" />
              </g>
              <g
                 id="g3">
                <path
                   class="st3"
                   d="m 131.77,191.59 c 2.89,2.38 5.61,5.61 9.7,7.83 4.08,2.21 7.15,5.1 9.19,7.15 2.04,2.04 5.61,0.17 7.66,-0.85 2.04,-1.02 11.23,-2.21 14.12,-0.51 2.89,1.7 3.91,0.68 5.96,0.17 2.04,-0.51 5.61,-3.06 7.32,-2.38 1.7,0.68 2.89,1.7 4.76,-0.68 1.87,-2.38 7.32,-2.55 9.7,-2.38 2.38,0.17 5.45,2.72 6.12,5.1 0.68,2.38 3.23,3.91 5.27,3.57 2.04,-0.34 4.93,-1.7 6.29,-1.02 1.36,0.68 2.55,2.89 4.08,3.74 1.53,0.85 2.04,2.38 1.53,3.91 -0.2,0.59 -0.68,1.7 -1.14,2.93 9.99,-1.03 19.81,-1.6 26.31,1.14 28.51,12.06 51.11,4.01 64.29,4.52 18.47,0.72 33.9,1.88 45.01,-9.94 0.53,0.01 1.15,-0.33 1.81,-0.82 0,0 0,0 0.01,0 1.38,-0.67 2.62,-3.04 4.57,-2.1 0.39,0.16 0.88,0.29 1.72,0.17 1.84,-0.26 2.98,-0.83 4.89,-1.31 3.71,-5.95 8.18,-14.74 10.08,-18.77 2.89,-6.12 3.91,-10.21 4.08,-12.08 0.17,-1.87 0,-6.12 0,-6.12 0,0 -2.04,-0.17 -3.91,1.7 -1.87,1.87 -5.1,1.02 -8.34,1.53 -3.23,0.51 -4.42,1.36 -6.81,1.7 -0.83,0.12 -1.33,-0.01 -1.72,-0.17 -1.95,-0.94 -3.19,1.42 -4.57,2.1 0,0 -0.01,0 -0.01,0 -0.66,0.48 -1.28,0.83 -1.81,0.82 -11.11,11.82 -26.54,10.66 -45.01,9.94 -13.18,-0.52 -35.78,7.53 -64.29,-4.52 -11.57,-4.89 -33.64,0.76 -48.51,0.7 -14.86,-0.06 -25.97,1.19 -42.49,-2.7 -23.14,-5.44 -26.56,0.48 -26.56,0.48 1.72,3.07 -2.19,4.77 0.7,7.15 z"
                   id="path3"
                   style="fill:#5b3832" />
              </g>
            </g>
            <g
               id="g5">
              <path
                 class="st4"
                 d="m 122.96,174.81 c -0.97,0.09 -1.91,0.3 -2.81,0.65 0.23,0.18 0.47,0.29 0.72,0.32 1.3,0.1 1.75,-0.61 2.09,-0.97 z"
                 id="path4"
                 style="fill:#e2e3e4" />
            </g>
            <g
               id="g14">
              <path
                 class="st3"
                 d="m 286.51,174.36 c 0.77,0.24 1.49,0.48 2.3,0.59 -0.04,1.42 0.01,2.89 -0.07,4.36 -0.19,3.88 1.41,7.67 2.38,8.15 0.97,0.48 1.55,0.53 1.84,-0.15 0.29,-0.68 -0.14,-1.21 -0.83,-1.65 -0.68,-0.44 -0.87,-0.92 -0.82,-3.78 0.05,-2.86 2.18,-8 3.59,-8.2 1.41,-0.19 3.78,-0.35 3.84,0.43 0.29,3.12 1.8,2.54 1.8,2.54 0,0 -0.01,0.62 -1.27,3.29 -1.27,2.67 -2.53,9.9 -2.53,10.53 0,0.63 -0.58,1.26 0.29,1.36 0.87,0.1 3.69,-0.19 3.88,-0.68 0.19,-0.48 0,-1.12 0.05,-1.89 0.04,-0.6 3.04,-6.03 4.37,-8.4 0.78,2.49 2.26,6.51 2.45,7.09 0.26,0.82 0.37,2.46 0.74,3.27 0.37,0.81 1.82,0.62 2.55,0.59 1.11,-0.05 1.61,-0.43 1.34,-0.95 -0.27,-0.52 -1.64,-6.69 -1.72,-7.45 -0.03,-0.28 0.04,-1.05 0.15,-1.9 5.79,1.09 12.15,-0.31 12.15,-0.31 0,0 0.29,0.48 0.29,1.5 0,1.02 0.34,6.74 0.24,7.76 -0.1,1.02 -0.44,1.7 0.73,1.65 1.16,-0.05 3.2,0.14 3.64,-0.15 0.44,-0.29 0.73,-4.17 0.54,-6.02 -0.01,-0.03 0,-0.08 0,-0.11 0.91,1.2 1.99,2.5 2.28,2.88 0.54,0.68 1.26,2.43 1.89,3.06 0.63,0.63 2.33,-0.78 2.76,-1.36 0.44,-0.58 0.87,-0.92 0.44,-1.31 -0.44,-0.39 -3.93,-4.95 -4.27,-5.63 -0.34,-0.68 -1.1,-4.93 -1.1,-4.93 l -0.1,0.29 c 0.4,-1.2 0.78,-2.39 1.05,-3.47 0.29,-1.16 0.38,-2.17 0.33,-3.12 0.24,0.76 0.43,1.7 0.59,2.58 0.19,1.1 1.75,5.92 1.75,5.92 0,0 -0.24,0.78 0.2,2.28 0.43,1.5 2.72,2.09 2.72,2.09 0,0 -0.92,-1.5 -1.07,-2.43 -0.15,-0.92 -1.12,-1.6 -1.36,-2.09 -0.24,-0.48 -1.6,-5.69 -1.79,-6.74 -0.22,-1.14 -1.35,-3.54 -1.35,-3.54 l -0.01,0.02 c -0.39,-1.28 -1.1,-2.47 -2.09,-3.76 -2.14,-2.77 -7.47,-4.42 -9.75,-3.74 -2.28,0.68 -6.21,0.83 -7.91,0.53 -1.7,-0.29 -5.29,-2.47 -7.71,-2.57 -2.43,-0.1 -3.78,0.97 -4.71,0.92 -0.92,-0.05 -2.52,-0.1 -2.52,-0.1 -2.95,-0.05 -3.93,4.12 -6.16,6.99 -1.11,1.42 -1.51,3.1 -1.66,4.9 -1.14,0.17 -2.35,0.17 -3.29,-0.25 0,0.04 -0.78,0.57 0.92,1.11 z m 43.7,4.87 v 0 c 0.01,-0.02 0.01,-0.04 0.02,-0.06 z"
                 id="path5"
                 style="fill:#5b3832" />
              <path
                 class="st3"
                 d="m 275.46,179.83 c -0.49,-1.08 -1.62,-5.34 -2.69,-7.34 -0.65,-1.21 -1.78,-2.1 -2.57,-2.61 -0.11,-0.53 -0.26,-1.03 -0.46,-1.45 -0.88,-1.86 -4.9,-3.08 -6.32,-3.18 -1.42,-0.1 -4.45,-1.61 -5.19,-2.99 -0.73,-1.37 -2.49,-2.15 -4.6,-3.18 -2.1,-1.03 -7.44,-6.17 -8.91,-8.17 -1.47,-2.01 -4.16,-3.77 -4.99,-3.96 -0.83,-0.2 -2.45,-0.93 -2.45,-0.93 0,0 0,0 0,-0.78 0,-0.78 -1.52,-1.47 -1.52,-1.47 -0.44,1.57 0.49,2.2 0.49,2.2 0,0 -0.24,0.49 -1.22,1.22 -0.98,0.73 -1.08,1.91 -1.13,2.64 -0.05,0.73 -0.64,1.18 -1.27,2.59 -0.63,1.42 -0.98,1.61 -0.25,2.06 0.74,0.44 2.25,0.29 2.65,-0.2 0.39,-0.49 0.98,-1.42 2.01,-1.47 1.03,-0.05 2.3,-1.76 2.3,-1.76 2.1,1.47 6.02,6.17 7.49,8.81 1.47,2.64 4.11,7.64 4.06,10.03 -0.05,2.4 -1.37,9.94 -1.37,12.92 0,2.99 -0.69,6.56 -0.88,7.59 -0.19,1.03 -0.39,2.69 -0.39,2.69 h 1.66 c 0,0 0.25,-3.43 0.35,-3.77 0.1,-0.34 0.78,-3.67 1.12,-5.87 0.1,-0.63 0.45,-1.62 0.91,-2.71 0.5,1.93 1.5,6.1 1.68,7.36 0.2,1.37 0.98,4.89 0.98,4.89 h 1.57 c 0,0 -0.69,-2.45 -0.83,-3.33 -0.15,-0.88 -0.68,-5.09 -0.73,-6.36 -0.05,-1.27 0.02,-8.12 0.02,-8.19 0.11,-0.21 0.17,-0.33 0.17,-0.33 4.99,2.2 7.88,-0.29 7.88,-0.29 0,0 1.47,0.93 2.45,2.45 0.53,0.82 1.7,2.53 2.71,4.05 0.07,0.5 0.09,0.95 0.03,1.23 -0.25,1.22 -2.45,7.68 -2.64,8.56 -0.2,0.88 -0.44,1.86 -0.44,1.86 h 1.91 c 0,0 0.59,-1.96 0.73,-2.69 0.11,-0.57 1.33,-3.75 2.22,-5.79 0.37,1.25 1.25,4.39 1.2,5.69 -0.05,1.47 -0.15,2.69 -0.15,2.69 h 1.86 c 0.05,-1.23 -0.29,-3.43 -0.59,-5.19 -0.29,-1.76 -0.29,-6.66 -0.83,-7.98 -0.54,-1.32 -1.52,-3.13 -1.22,-4.5 0.18,-0.83 0.26,-2.33 0.11,-3.81 0.46,0.32 1.02,0.78 1.65,1.46 1.7,1.84 2.94,8.03 2.94,8.03 0,0 -0.03,-2.18 0.1,0.25 0.12,2.42 1.71,4.36 1.71,4.36 0.79,-2.15 -0.83,-4.25 -1.32,-5.33 z"
                 id="path6"
                 style="fill:#5b3832" />
              <path
                 class="st3"
                 d="m 180.49,163.52 c -0.36,-0.8 -0.69,-1.05 -0.71,-1.46 -0.03,-0.41 -0.08,-1.07 -0.63,-1.49 -0.55,-0.41 -0.69,-0.69 -0.69,-0.69 0,0 0.52,-0.36 0.27,-1.24 0,0 -0.85,0.39 -0.85,0.83 0,0.44 0,0.44 0,0.44 0,0 -0.91,0.41 -1.38,0.52 -0.47,0.11 -1.98,1.1 -2.81,2.23 -0.83,1.13 -3.83,4.02 -5.01,4.6 -1.18,0.58 -2.18,1.02 -2.59,1.79 -0.41,0.77 -2.12,1.62 -2.92,1.68 -0.8,0.06 -3.06,0.74 -3.55,1.79 -0.11,0.24 -0.19,0.52 -0.26,0.82 -0.45,0.29 -1.09,0.79 -1.45,1.47 -0.61,1.13 -1.24,3.52 -1.51,4.13 -0.28,0.61 -1.18,1.79 -0.74,3 0,0 0.89,-1.09 0.96,-2.45 0.07,-1.36 0.05,-0.14 0.05,-0.14 0,0 0.7,-3.48 1.65,-4.52 0.35,-0.38 0.67,-0.64 0.93,-0.82 -0.09,0.83 -0.04,1.67 0.06,2.14 0.17,0.77 -0.38,1.79 -0.69,2.53 -0.3,0.74 -0.3,3.5 -0.47,4.49 -0.16,0.99 -0.36,2.23 -0.33,2.92 h 1.04 c 0,0 -0.06,-0.69 -0.08,-1.51 -0.02,-0.73 0.47,-2.5 0.68,-3.2 0.5,1.14 1.19,2.94 1.25,3.25 0.08,0.41 0.42,1.51 0.42,1.51 h 1.07 c 0,0 -0.14,-0.55 -0.25,-1.05 -0.11,-0.5 -1.35,-4.13 -1.49,-4.82 -0.03,-0.16 -0.02,-0.41 0.02,-0.69 0.56,-0.86 1.23,-1.82 1.52,-2.28 0.55,-0.85 1.38,-1.38 1.38,-1.38 0,0 1.62,1.4 4.43,0.17 0,0 0.04,0.07 0.1,0.19 0,0.02 0.04,3.89 0.01,4.6 -0.03,0.71 -0.33,3.08 -0.41,3.58 -0.08,0.5 -0.47,1.87 -0.47,1.87 h 0.88 c 0,0 0.44,-1.98 0.55,-2.75 0.1,-0.71 0.66,-3.05 0.95,-4.14 0.25,0.61 0.46,1.17 0.51,1.52 0.19,1.24 0.58,3.11 0.63,3.3 0.05,0.19 0.19,2.12 0.19,2.12 h 0.94 c 0,0 -0.11,-0.94 -0.22,-1.51 -0.11,-0.58 -0.49,-2.59 -0.49,-4.27 0,-1.68 -0.74,-5.92 -0.77,-7.27 -0.03,-1.35 1.46,-4.16 2.29,-5.64 0.83,-1.49 3.03,-4.13 4.21,-4.96 0,0 0.72,0.96 1.29,0.99 0.58,0.03 0.91,0.55 1.13,0.83 0.22,0.27 1.07,0.36 1.48,0.11 0.43,-0.23 0.24,-0.34 -0.12,-1.14 z"
                 id="path7"
                 style="fill:#5b3832" />
              <g
                 id="g10">
                <path
                   class="st3"
                   d="m 170.89,132.57 c -0.17,0 -0.29,0.01 -0.31,0.04 -0.04,0.05 0.09,0.02 0.31,-0.04 z"
                   id="path8"
                   style="fill:#5b3832" />
                <path
                   class="st3"
                   d="m 171.89,128.65 c 0,0 0,0 0,0 -0.09,0.04 -0.08,0.03 0,0 z"
                   id="path9"
                   style="fill:#5b3832" />
                <path
                   class="st3"
                   d="m 261.54,104.47 c -2.87,-0.4 -6.04,0.1 -7.93,-1.09 -1.88,-1.19 -1.88,-1.88 -5.05,-2.58 -3.17,-0.69 -5.55,-1.09 -8.62,-1.48 -3.07,-0.4 -6.44,-1.19 -8.03,-1.88 -1.59,-0.69 -4.56,-1.68 -7.23,-1.88 -2.67,-0.2 -6.94,-0.49 -8.72,-0.69 -1.78,-0.2 -6.44,-0.3 -8.22,0 -1.79,0.3 -2.11,0.02 -4.76,0.4 -0.99,0.14 -2.28,0.5 -3.47,0.4 -1.19,-0.1 -4.95,-0.4 -6.74,-0.1 -1.79,0.3 -3.07,-0.79 -5.25,-0.59 -2.18,0.2 -8.13,0.69 -8.92,1.49 -0.79,0.79 -1.49,1.29 -3.57,1.39 -2.08,0.1 -7.23,0.2 -9.81,0.3 -2.58,0.1 -6.34,1.59 -5.15,2.58 1.19,0.99 3.76,1.49 0.39,2.18 -3.37,0.69 -5.05,0.69 -6.24,1.49 -1.19,0.79 0.59,1.29 -0.99,1.49 -1.59,0.2 -5.05,0.89 -5.95,1.78 -0.89,0.89 -0.3,1.68 1.98,1.78 2.28,0.1 7.53,-0.5 7.93,-0.1 0.4,0.4 3.96,0.69 6.44,0.4 2.24,-0.27 6.65,-0.7 9.38,-0.92 0.3,0.24 0.76,0.6 0.95,0.67 0.28,0.11 1.24,0.61 1.24,0.61 h -0.63 l -0.52,0.07 c 0,0 1.23,0.2 1.43,0.29 0.19,0.09 1.11,1.27 1.31,1.45 0.2,0.19 1.02,1.46 1.02,1.46 0,0 -0.54,-0.09 -0.78,-0.13 -0.24,-0.04 -1.4,-0.41 -1.89,-0.55 -0.49,-0.14 -3.23,-1.04 -3.23,-1.04 0,0 -0.47,-0.11 -0.62,-0.15 -0.14,-0.04 -1.31,-0.35 -1.51,-0.44 -0.19,-0.09 -0.69,-0.64 -0.87,-0.79 -0.18,-0.15 -1.05,-0.62 -1.05,-0.62 l 1.35,1.31 c 0,0 -0.35,0.12 -0.65,0.06 -0.3,-0.06 -1.49,0.04 -1.49,0.04 l 2.31,0.3 c 0,0 0.58,0.27 0.74,0.28 0.15,0.01 1.5,0.28 1.73,0.35 0.23,0.07 2.24,0.75 2.24,0.75 l 2,0.9 c 0,0 -0.73,0.23 -0.94,0.29 -0.21,0.07 -1.36,0.23 -1.36,0.23 0,0 2.38,-0.06 2.53,-0.11 0.14,-0.05 1.43,0.07 1.78,0.05 0.25,-0.02 2.14,1.72 3.17,2.69 -1.21,0.29 -2.58,0.54 -3.88,0.71 -2.57,0.33 -4.56,0.66 -7.21,1.24 -2.66,0.58 -2.66,1.16 -4.23,2.15 -1.57,1 -4.23,0.58 -6.63,0.91 -2.4,0.33 -1.53,2.45 0.33,2.49 0.68,0.01 2.57,-0.25 2.99,0.42 0.41,0.66 3.15,-0.08 4.72,0 1.58,0.08 4.23,0.08 5.47,0.08 1.24,0 3.32,0.58 3.9,1.41 0.24,0.35 0.88,0.68 1.65,0.97 0.37,0.64 0.66,1.16 0.66,1.16 0,0 -1.56,-0.3 -2.61,-0.38 -1.05,-0.08 -1.89,-0.29 -1.89,-0.29 0,0 -2.24,0.85 -2.65,1.01 0.56,-0.21 3.03,-0.42 3.32,-0.46 0.29,-0.04 2.9,0.59 3.33,0.55 0.42,-0.04 0.67,1.01 0.8,1.26 0.12,0.25 0.67,2.36 0.25,2.06 -0.42,-0.29 -1.52,-0.38 -2.06,-0.46 -0.55,-0.09 -0.46,-0.09 -1.22,-0.25 -0.76,-0.17 -1.52,0.04 -1.52,0.04 0,0 1.22,0.21 1.6,0.29 0.38,0.08 0.63,0.34 0.34,0.46 -0.29,0.13 -0.76,0.63 -1.05,0.59 -0.29,-0.04 -2.11,-0.42 -2.78,-0.55 -0.47,-0.09 -1.49,0.24 -2,0.38 0.77,0.01 2.69,0.29 2.93,0.29 0.29,0 1.73,0.42 2.06,0.42 0.34,0 1.43,-0.5 1.64,-0.8 0.21,-0.29 1.85,0.25 1.9,0.42 0.03,0.12 0.42,1.06 0.63,1.55 -0.01,0 -0.01,0 -0.02,0 -0.36,0.04 -0.88,0.13 -1.42,0.24 -0.67,0.02 -1.51,0.22 -1.51,0.22 l 0.48,0.04 c -0.42,0.13 -0.79,0.29 -0.96,0.45 -0.51,0.48 -0.17,0.9 1.13,0.96 0.83,0.03 2.33,-0.08 3.39,-0.12 0.17,0.29 0.36,0.6 0.54,0.94 0.25,0.45 0.97,1.17 1.78,1.88 -0.29,0.01 -0.54,0.03 -0.72,0.06 -0.79,0.12 -0.94,0.01 -2.1,0.16 -0.44,0.06 -1.01,0.21 -1.54,0.16 -0.53,-0.04 -2.19,-0.16 -2.98,-0.04 -0.79,0.12 -1.36,-0.33 -2.32,-0.25 -0.96,0.08 -3.59,0.29 -3.95,0.62 -0.13,0.12 -0.26,0.23 -0.42,0.32 -0.06,-0.01 -0.06,-0.01 -0.01,0 -0.25,0.14 -0.59,0.23 -1.16,0.25 -0.92,0.04 -3.2,0.08 -4.34,0.12 -1.14,0.04 -2.81,0.66 -2.28,1.07 0.53,0.41 1.67,0.62 0.17,0.9 -1.49,0.29 -2.24,0.29 -2.76,0.62 -0.53,0.33 0.26,0.53 -0.44,0.62 -0.7,0.08 -2.24,0.37 -2.63,0.74 -0.39,0.37 -0.13,0.7 0.88,0.74 1.01,0.04 3.33,-0.21 3.51,-0.04 0.17,0.16 1.75,0.29 2.85,0.16 1.1,-0.12 3.38,-0.33 4.52,-0.41 1.14,-0.08 2.98,-0.45 4.03,-0.08 0.84,0.3 2.79,0.14 3.64,0.09 1.1,0.45 2.8,1.16 2.96,1.32 0.2,0.2 1.26,1.52 1.78,2.31 0.53,0.79 2.38,0.73 4.03,0.86 1.65,0.13 1.39,0.66 1.72,1.65 0.33,0.99 0.46,2.38 0.79,2.71 0.19,0.19 1.59,0.68 2.97,1.21 0.11,0.58 0.25,1.3 0.3,1.56 0.08,0.46 0.17,1.81 0.46,2.27 0.29,0.46 0.97,1.64 0.97,1.64 0,0 -0.55,-0.21 -1.51,-0.13 -0.97,0.08 -2.02,0.08 -2.23,-0.04 -0.21,-0.13 -1.13,-1.22 -1.35,-1.98 -0.21,-0.76 -0.05,0.01 -0.05,0.01 0,0 0.21,0.75 0.53,1.15 0.32,0.4 0.49,0.9 0.49,0.9 0,0 -0.55,0.12 -1,-0.04 -0.45,-0.17 -1.66,-0.77 -1.7,-0.78 -0.04,-0.01 0.74,0.49 1.1,0.66 0.37,0.18 1.16,0.52 1.67,0.52 0.51,0 3.39,0.09 3.61,0.11 0.22,0.02 0.93,0.64 1.33,0.99 0.41,0.35 1.84,2.1 1.84,2.1 0,0 -0.85,-0.12 -1.61,0.12 -0.76,0.24 -1.74,0.64 -2.18,0.64 -0.43,0 -2.66,-0.13 -2.86,-0.09 -0.2,0.04 -1.2,0.43 -1.2,0.43 0,0 0.97,-0.26 1.35,-0.29 0.37,-0.02 2.27,0.12 2.27,0.12 l -1.14,0.73 c 0,0 1.01,-0.61 1.45,-0.68 0.43,-0.08 1.28,-0.28 1.53,-0.37 0.25,-0.1 0.89,-0.32 1.43,-0.32 0.54,0 1.19,0.08 1.19,0.08 0,0 2.17,5.21 2.42,5.64 0.24,0.43 0.75,2.36 0.81,2.69 0.05,0.3 1.98,5.13 2.36,6.07 l 0.17,8 h 3.1 2.5 2.85 c 0,0 -1.45,-8.54 -1.12,-11.44 0.33,-2.91 1.06,-3.44 1.06,-3.44 0,0 4.1,-3.57 5.02,-5.42 0.93,-1.85 1.46,-2.84 1.46,-2.84 0,0 0.99,-0.4 2.91,-0.59 1.92,-0.2 4.79,-0.7 5.09,-0.79 0.3,-0.09 2.01,0.15 2.01,0.15 0,0 -1.25,-0.39 -1.34,-0.39 -0.09,0 -0.13,-0.06 0.3,-0.3 0.43,-0.24 1.1,-0.82 1.28,-1.06 0.17,-0.24 0.5,-1.27 0.5,-1.27 0,0 -0.5,1.01 -1.12,1.47 -0.63,0.45 -1.77,1.12 -2.31,1.27 -0.54,0.15 -5.77,0.35 -6.33,0.37 -0.56,0.02 -0.56,0.02 -0.56,0.02 0,0 0.48,-1.12 1.45,-1.53 0.97,-0.41 4.58,-2.4 4.65,-2.4 0.06,0 1.92,-0.48 2.63,-0.99 0.71,-0.52 2.66,-2.14 2.96,-2.29 0.3,-0.15 1.44,-0.37 1.68,-0.39 0.24,-0.02 -0.8,-0.06 -1.06,0.02 -0.26,0.09 -0.82,0.04 -2.07,1.12 -1.25,1.08 -3.87,2.01 -3.87,2.01 0,0 2.01,-3.07 2.03,-3.82 0.02,-0.76 -0.06,-3.5 0.02,-3.82 0.09,-0.32 1.19,-1.77 1.19,-1.77 0,0 -0.69,0.48 -0.95,0.82 -0.26,0.35 -0.3,0.45 -0.3,0.45 0,0 0,-1.62 0.43,-2.18 0.43,-0.56 0.82,-1.6 0.82,-1.6 0,0 -0.87,1.15 -1.14,1.64 -0.28,0.5 -0.45,1.88 -0.43,2.81 0.02,0.93 0.06,2.98 -0.11,3.63 -0.17,0.65 -1.56,3.43 -2.18,3.89 -0.63,0.45 -4.73,2.46 -5.1,2.61 -0.37,0.15 -1.04,0.43 -1.64,1.45 -0.6,1.01 -2.14,3.78 -3.09,5.06 -0.95,1.28 -2.94,3.13 -2.94,3.13 0,0 0.74,-6.35 0.99,-7.97 0.26,-1.62 0.61,-4.82 0.93,-6.07 0.32,-1.25 0.67,-5.51 1.1,-6.52 0.43,-1.02 4.06,-4.49 4.54,-5.64 0.47,-1.14 1.36,-2.94 1.43,-3 0.04,-0.04 2.66,-1.89 4.52,-3.2 1.02,0.08 2.42,0.06 3.54,-0.02 0.03,0.03 0.06,0.05 0.08,0.09 1.02,1.1 1.19,1.36 2.25,1.71 1.06,0.35 5.12,1.66 5.73,2.29 0,0 -0.71,-0.65 -1.73,-1.08 -1.01,-0.43 -2.61,-1.15 -2.7,-1.12 -0.09,0.02 1.08,-0.28 1.56,-0.39 0.47,-0.11 1.36,-0.54 1.36,-0.54 0,0 -1.21,0.32 -1.84,0.43 -0.63,0.11 -1.8,0.11 -2.18,0.02 -0.32,-0.07 -1.28,-0.9 -1.92,-1.45 0.24,-0.02 0.46,-0.04 0.63,-0.07 1.14,-0.16 3.07,-0.64 3.46,-1.17 0.4,-0.53 1.82,-0.9 2.67,-0.9 0.85,0 2.67,0 3.74,-0.05 1.08,-0.05 2.79,0.25 3.24,0 0.86,-0.48 0.71,-1.65 -2.27,-2.45 -1.21,-0.33 -1.08,-1.01 -2.89,-1.38 -1.82,-0.37 -3.18,-0.59 -4.94,-0.8 -0.64,-0.08 -1.31,-0.18 -1.94,-0.31 1.79,-1.03 3.38,-1.95 3.38,-1.95 h 1.18 c 0,0 2.02,0.63 2.61,0.93 0.59,0.29 5.26,1.47 5.26,1.47 0,0 -3.79,-1.39 -4.34,-1.81 -0.55,-0.42 -3.33,-1.26 -3.33,-1.26 0,0 0.97,0 2.06,-0.08 1.09,-0.09 3.79,-0.08 4.59,-0.21 0.8,-0.13 8.13,-1.64 8.13,-1.64 0,0 -7.54,1.26 -9.05,1.22 -1.52,-0.04 -6.4,-0.13 -6.4,-0.13 0,0 0.63,-0.34 0.8,-0.76 0.04,-0.11 0.45,-0.49 1.03,-0.98 2.3,0.19 5.77,0.53 7.56,0.75 2.07,0.25 5.06,0 5.39,-0.33 0.33,-0.33 4.73,0.17 6.63,0.08 1.91,-0.08 2.41,-0.75 1.66,-1.49 -0.75,-0.75 -3.65,-1.33 -4.98,-1.49 -1.33,-0.17 0.17,-0.58 -0.83,-1.24 -1,-0.66 -2.41,-0.66 -5.23,-1.24 -2.82,-0.58 -0.66,-0.99 0.33,-1.82 1,-0.83 -2.16,-2.07 -4.31,-2.16 -2.16,-0.08 -6.47,-0.17 -8.21,-0.25 -1.68,-0.08 -2.28,-0.47 -2.91,-1.09 0.5,-0.09 1,-0.19 1.09,-0.16 0.17,0.04 2.9,-0.23 2.9,-0.23 0,0 -1.34,-0.03 -1.59,-0.07 -0.25,-0.04 -1.11,-0.2 -1.11,-0.2 l 2.16,-1.31 c 0,0 2.19,-1.07 2.45,-1.18 0.07,-0.03 0.21,-0.08 0.4,-0.15 2.01,-0.35 4.99,-1.19 5.64,-2.11 0.69,-0.99 3.17,-1.68 4.66,-1.68 1.49,0 4.66,0 6.54,-0.1 1.88,-0.1 5.15,0.79 5.65,0 0.5,-0.79 2.45,-0.1 3.57,-0.5 0.78,-0.33 3.27,-2.63 0.4,-3.03 z m -33.09,7.78 c -0.06,0.22 -0.13,0.45 -0.19,0.63 -0.1,0.3 -0.55,1.22 -0.81,1.74 -0.11,-0.02 -0.22,-0.05 -0.33,-0.07 -0.1,-0.23 -0.25,-0.52 -0.47,-0.76 -0.43,-0.5 -1.06,-1.11 -1.2,-1.44 -0.03,-0.06 -0.07,-0.16 -0.12,-0.3 0.15,0.02 0.29,0.03 0.42,0.05 0.77,0.09 1.71,0.14 2.7,0.15 z m -4.57,13.82 c -0.02,0.21 -0.82,1.48 -0.92,1.73 -0.08,0.19 -0.62,0.92 -0.89,1.27 -0.06,-0.01 -0.12,-0.02 -0.18,-0.03 -0.03,-0.18 -0.08,-0.42 -0.1,-0.56 -0.04,-0.24 -0.09,-1.45 -0.13,-1.96 -0.01,-0.16 -0.03,-0.53 -0.04,-0.97 0.76,0.01 1.52,-0.01 2.19,-0.09 0.05,0.27 0.08,0.53 0.07,0.61 z m -19.26,28.85 c -0.1,-0.71 -0.19,-1.24 -0.26,-1.43 -0.27,-0.79 0.07,-3.63 0.33,-4.43 0.13,-0.39 0.31,-1.06 0.45,-1.65 0.42,0.45 0.78,0.85 1,1.12 0.31,0.38 0.63,0.72 0.92,1.07 -0.68,1.66 -1.44,3.37 -2.11,4.61 -0.11,0.22 -0.22,0.46 -0.33,0.71 z m -1.29,3.79 c -0.35,-0.45 -0.72,-1.08 -0.95,-1.51 -0.53,-0.99 -1.65,-2.58 -1.72,-3.04 -0.03,-0.19 -0.66,-0.83 -1.38,-1.5 0.39,-0.52 0.9,-1.21 1.44,-1.93 0.52,0.87 1.06,1.74 1.46,2.17 0.6,0.65 1.31,2.41 1.72,3.93 -0.19,0.6 -0.39,1.24 -0.57,1.88 z m -8.92,-4.46 c 0,-0.13 0.02,-0.48 0.06,-0.87 0.66,0.48 1.38,0.99 1.98,1.35 0.14,0.72 0.23,1.21 0.23,1.21 0,0 0.04,0.15 0.1,0.41 -0.72,-0.36 -1.53,-0.73 -2.34,-1.07 -0.01,-0.5 -0.03,-0.91 -0.03,-1.03 z m 0.13,-3.53 0.37,-2.31 c 0.14,0.26 0.25,0.48 0.31,0.63 0.19,0.48 0.74,3.17 1.11,5.04 -0.66,-0.35 -1.32,-0.75 -1.82,-1.13 0.04,-0.53 0.1,-1.03 0.12,-1.13 0.03,-0.22 -0.09,-1.1 -0.09,-1.1 z m -5.79,-13.59 c -0.03,-0.21 -0.19,-0.62 -0.28,-0.84 0.65,-0.06 1.33,-0.12 1.94,-0.17 0.6,1.53 1.13,2.98 1.34,3.56 -0.48,-0.12 -1,-0.21 -1.5,-0.24 -0.4,-0.03 -0.88,-0.06 -1.36,-0.09 -0.07,-1.03 -0.11,-2.07 -0.14,-2.22 z m 0.55,-8.43 c -0.07,-0.15 -0.2,-0.31 -0.35,-0.49 0.1,-0.01 0.21,-0.02 0.3,-0.03 0.81,-0.1 2.05,-0.23 3.45,-0.39 0.41,0.69 0.88,1.51 1.21,2.09 -0.31,0.15 -0.73,0.24 -1.38,0.27 -0.56,0.02 -1.51,0.05 -2.51,0.08 -0.3,-0.64 -0.56,-1.21 -0.72,-1.53 z m 30.39,-17.28 c -0.16,0.24 -0.31,0.42 -0.38,0.47 -0.14,0.1 -0.9,0.15 -1.6,0.13 -0.7,-0.02 -1.08,0.16 -1.08,0.16 0,0 0.32,-0.65 0.53,-1.05 0.84,0.1 1.69,0.2 2.53,0.29 z m 5.49,0.65 -0.07,-0.05 c 0.02,0 0.04,0 0.05,0.01 0.01,0.02 0.02,0.04 0.02,0.04 z m -0.23,-0.06 c 0.13,0.11 0.24,0.23 0.3,0.31 0.2,0.3 0.63,0.88 0.79,1.04 0.16,0.16 0.54,0.57 0.71,0.98 0.02,0.05 0.04,0.1 0.06,0.15 -1.8,-0.32 -4.36,-0.54 -5.56,-0.65 -0.34,-0.03 -0.65,-0.02 -0.95,0.01 0.53,-0.79 1.07,-1.58 1.49,-2.19 1.21,0.13 2.29,0.25 3.16,0.35 z m -3.68,13.54 -0.16,2.19 c 0,0 -0.46,-0.61 -0.59,-0.78 -0.13,-0.17 -0.68,-1.2 -0.68,-1.2 0,0 0.87,2.22 0.97,2.33 0.05,0.06 0.17,0.45 0.29,0.85 -0.05,0 -0.09,-0.01 -0.14,-0.01 -1.53,-0.11 -3.97,-0.27 -5,-0.37 -0.12,-0.01 -0.26,-0.02 -0.42,-0.03 0.2,-0.8 0.42,-1.72 0.66,-2.69 0.64,-0.24 1.09,-0.44 1.24,-0.47 0.23,-0.05 1.99,0.13 3.83,0.18 z m -10.02,3.01 c -1.02,0.16 -1.21,0.01 -2.73,0.21 -0.1,0.01 -0.21,0.03 -0.32,0.05 0.08,-0.58 0.2,-1.39 0.36,-2.35 1.19,0 2.24,0.03 2.98,0.12 1.27,0.15 2.57,-0.11 3.64,-0.42 -0.31,1.17 -0.54,1.98 -0.57,2.06 -0.01,0.03 -0.03,0.12 -0.05,0.24 -1.17,-0.03 -2.62,-0.02 -3.31,0.09 z m -3.83,8.16 c 0.05,0.73 0.19,2.94 0.07,3.71 -0.15,0.93 -1.94,4.15 -1.94,4.15 0,0 -0.04,-1.6 0.13,-2.03 0.17,-0.43 0.93,-4.16 0.92,-4.82 0.07,-0.32 0.14,-0.65 0.22,-0.98 0.18,-0.01 0.38,-0.02 0.6,-0.03 z m -10.44,10.92 c 0.66,0.14 1.8,0.37 2.17,0.63 0.16,0.12 0.48,0.61 0.85,1.23 -0.92,0.96 -1.72,1.69 -1.72,1.69 -0.33,-0.62 -0.96,-2.49 -1.3,-3.55 z m 2.49,-0.75 c -0.16,-0.49 -0.23,-1.42 -0.35,-2.26 0.1,-0.01 0.2,-0.02 0.29,-0.02 0.66,0 2.06,0 2.89,-0.04 0.04,0 0.08,0 0.12,0 0.15,0.16 0.31,0.33 0.49,0.52 -0.15,0.42 -0.28,0.79 -0.39,1.06 -0.31,0.79 -1.12,1.81 -1.95,2.73 -0.46,-0.78 -0.94,-1.53 -1.1,-1.99 z m -5.91,-6.64 c -0.34,-1.29 -0.75,-2.99 -1.1,-4.3 1.02,-0.11 2.29,-0.29 3.36,-0.25 0.01,0.03 0.02,0.07 0.02,0.09 0.04,0.36 0.42,2.24 0.62,3.67 -0.23,-0.31 -0.42,-0.54 -0.55,-0.63 -0.59,-0.4 -1.78,-1.72 -1.78,-1.72 0,0 1.45,2.05 2.12,2.97 0.1,0.15 0.22,0.34 0.34,0.57 0,0.03 0,0.06 0,0.09 0,0.06 0,0.12 -0.01,0.19 -1.18,-0.16 -2.37,-0.43 -3.02,-0.68 z m 20.22,-29.53 c 0.15,0.02 0.3,0.04 0.45,0.06 l -0.12,1.67 c 0,0 -0.46,-0.61 -0.6,-0.78 -0.1,-0.13 -0.44,-0.76 -0.6,-1.05 0.3,0.03 0.6,0.06 0.87,0.1 z m -0.9,-0.11 c 0.2,0.49 0.83,2.08 0.91,2.18 0.08,0.1 0.32,0.96 0.48,1.45 -1.25,0.03 -2.49,0.13 -3.05,0.18 -0.19,0.02 -0.37,0.01 -0.56,0.01 0.25,-1.4 0.49,-2.75 0.71,-3.96 0.54,0.04 1.04,0.09 1.51,0.14 z m -5.36,18.32 c -0.26,0.04 -0.54,0.06 -0.81,0.05 0.11,-1.02 0.16,-1.82 0.16,-1.98 0,-0.06 0.01,-0.25 0.03,-0.51 0.34,-0.01 0.68,-0.02 1.01,-0.02 -0.19,1.08 -0.33,1.94 -0.38,2.38 0,0.02 -0.01,0.05 -0.01,0.08 z m -2.32,8.74 c -0.03,0.41 -0.79,2.92 -1.54,5.2 -0.19,-0.07 -0.39,-0.13 -0.62,-0.19 -0.02,-0.01 -0.03,-0.01 -0.05,-0.02 -0.24,-0.47 -0.94,-2.73 -0.62,-3.04 0.2,-0.2 0.88,-1.66 1.61,-3.05 0.43,0.11 0.92,0.2 1.42,0.24 -0.11,0.43 -0.19,0.74 -0.2,0.86 z m -6.86,-9.73 c 0,0 -0.47,-0.28 -0.68,-0.41 -0.06,-0.04 -0.2,-0.14 -0.36,-0.26 0.3,-0.04 0.59,-0.07 0.88,-0.11 0.08,0.4 0.16,0.78 0.16,0.78 z m -1.69,-0.38 c 0,0 -0.76,-0.05 -0.98,-0.06 -0.03,0 -0.07,-0.01 -0.13,-0.02 0.31,-0.03 0.62,-0.07 0.92,-0.11 z m 2.63,-0.54 c 0.47,-0.06 1.02,-0.12 1.61,-0.18 -0.26,0.24 -0.8,0.56 -1.21,0.84 -0.47,0.33 -0.77,0.87 -0.77,0.87 0,0 -0.2,-0.84 -0.31,-1.44 0.23,-0.03 0.46,-0.06 0.68,-0.09 z m 0.21,1.12 c 0.24,-0.31 0.64,-0.58 0.81,-0.68 0.15,-0.09 0.55,-0.42 0.8,-0.64 0.55,-0.05 1.13,-0.1 1.74,-0.14 0.07,0.68 0.18,1.43 0.28,2.2 -0.16,0.01 -0.31,0.03 -0.44,0.05 -1.02,0.16 -1.76,-0.43 -3.01,-0.32 -0.15,0.01 -0.33,0.03 -0.54,0.05 0.09,-0.15 0.23,-0.35 0.36,-0.52 z m 0.91,10.29 c -0.35,-0.29 -0.95,-1.16 -1.47,-1.98 0.05,-0.11 0.1,-0.22 0.14,-0.32 1.43,0.01 2.97,-0.15 3.2,-0.12 -0.16,0.54 -0.3,1 -0.42,1.3 -0.33,0.86 -0.92,2.78 -0.92,2.78 0,0 0.19,-1.07 -0.53,-1.66 z m -2.48,-2.36 c -0.36,0.66 -0.67,1.24 -0.69,1.3 -0.03,0.09 -0.2,-0.67 -0.36,-1.52 0.06,0.02 0.13,0.03 0.19,0.05 0.23,0.08 0.53,0.13 0.86,0.17 z m 0,3.09 c 0.02,-0.33 0.33,-1.14 0.69,-1.99 0.13,0.3 0.26,0.57 0.4,0.73 0.6,0.73 0.92,1.26 1.06,1.72 0.09,0.3 0.42,1.31 0.65,1.97 -0.78,-0.16 -1.46,-0.28 -2.14,-0.38 -0.1,-0.08 -0.16,-0.13 -0.16,-0.13 0,0 0.03,0.05 0.08,0.12 -0.21,-0.03 -0.43,-0.07 -0.65,-0.1 0.03,-0.84 0.05,-1.62 0.07,-1.94 z m 12.13,-24.79 c -0.54,-0.07 -1.05,-0.18 -1.51,-0.25 0.14,-1.04 0.36,-2.63 0.51,-3.84 0.67,0.04 1.31,0.09 1.92,0.14 -0.33,1.35 -0.66,2.74 -0.92,3.95 z m -4.14,14.57 c -0.43,-0.03 -0.96,-0.06 -1.5,-0.07 -0.04,-0.44 -0.17,-1.26 -0.34,-2.26 0.74,-0.04 1.5,-0.08 2.24,-0.1 -0.09,0.67 -0.24,1.55 -0.4,2.43 z m -10.74,-1.42 c 0.65,0.23 1.46,0.51 1.54,0.51 0.15,0 1.3,0.58 1.64,0.69 0,0 0.01,0.01 0.01,0.01 -1.5,0.14 -3.47,0.37 -3.81,0.68 -0.03,0.03 -0.06,0.05 -0.09,0.08 -0.39,-0.72 -0.76,-1.35 -1.03,-1.78 0.58,-0.06 1.15,-0.13 1.74,-0.19 z m 7.81,20.23 c 0.29,-0.37 0.6,-0.97 0.91,-1.66 0.35,0.37 0.71,0.74 1.04,1.09 -0.41,0.75 -0.92,1.78 -0.96,2.22 -0.06,0.73 -0.4,3.24 -0.4,3.44 0,0.2 -1.58,-1.19 -2.12,-2.38 -0.06,-0.14 -0.13,-0.28 -0.21,-0.42 0.72,-0.97 1.4,-1.86 1.74,-2.29 z m 1.98,-4.32 z m 14.57,-29.46 c -0.92,0.2 -1.71,0.52 -2.68,0.36 -0.43,-0.07 -0.99,-0.1 -1.6,-0.11 0.29,-0.39 0.65,-0.87 0.81,-1.02 0.28,-0.27 0.76,-0.75 0.91,-0.77 0.16,-0.03 2.22,-0.22 2.58,-0.25 0.36,-0.02 0.92,-0.31 1.17,-0.45 0.07,-0.04 0.17,-0.1 0.26,-0.17 0.21,0.02 0.41,0.04 0.6,0.07 -0.58,0.67 -1.37,1.56 -2.05,2.34 z m 0.78,-2.12 c -0.32,0.14 -0.72,0.08 -0.72,0.08 0,0 0.07,-0.24 0.2,-0.5 0.36,0.04 0.73,0.08 1.08,0.12 -0.21,0.12 -0.43,0.24 -0.56,0.3 z m -4.35,0.65 c -0.11,0.25 -1.03,1.46 -1.03,1.46 0,0 -0.1,-0.54 -0.14,-0.78 -0.04,-0.24 -0.09,-1.45 -0.12,-1.96 -0.01,-0.08 -0.01,-0.22 -0.02,-0.39 0.67,0.08 1.38,0.17 2.11,0.26 -0.25,0.45 -0.72,1.22 -0.8,1.41 z m -7.1,-2.23 c -0.26,1.13 -0.6,2.63 -0.84,3.78 -1.95,-0.25 -2.27,-0.06 -3.69,-0.29 -0.65,-0.11 -1.75,-0.15 -2.92,-0.16 -0.26,-0.95 -0.47,-1.85 -0.49,-2.39 0,-0.08 -0.01,-0.16 -0.02,-0.25 0.98,-0.11 1.98,-0.27 2.19,-0.48 0.18,-0.18 0.36,-0.33 0.61,-0.43 1.66,0.04 3.46,0.11 5.16,0.22 z m -18.58,0.94 c 0.19,0.47 0.45,1.29 0.45,1.29 0,0 -0.54,-0.46 -1.15,-0.78 -0.29,-0.15 -0.62,-0.31 -0.92,-0.47 0.59,0 1.19,-0.01 1.62,-0.04 z m 0.4,-0.05 c 0.63,-0.1 0.84,-0.03 1.67,-0.12 -0.25,0.21 -0.77,0.71 -0.92,0.78 -0.14,0.08 -0.46,0.25 -0.46,0.25 0,0 -0.17,-0.51 -0.29,-0.91 z m 0.65,1.52 c 0.27,-0.05 1.1,-0.38 1.25,-0.37 0.14,0.02 1.9,-0.38 1.9,-0.38 0,0 -0.96,0.08 -1.16,0.07 -0.2,-0.01 -0.91,-0.06 -0.91,-0.06 l 0.7,-1.03 c 0.32,-0.06 0.68,-0.12 1.01,-0.09 0.51,0.04 2.12,0.17 2.89,0.04 0.76,-0.13 1.32,0.34 2.25,0.25 0.03,0 0.06,-0.01 0.1,-0.01 0.19,0.66 0.35,1.27 0.43,1.68 0.04,0.18 0.1,0.46 0.19,0.82 -1.02,0.02 -1.96,0.08 -2.54,0.14 -1.29,0.14 -4.11,0.35 -6.29,0.51 0.02,-0.78 0.06,-1.54 0.18,-1.57 z m 6.02,32.63 c 0.14,-0.19 0.46,-0.35 0.82,-0.48 0.14,0.89 0.45,2.47 0.51,2.78 0.04,0.2 -0.97,-0.22 -1.89,-0.56 -0.03,-0.1 -0.05,-0.17 -0.05,-0.17 0,0 0.14,-0.65 0.33,-1.36 0.11,-0.06 0.22,-0.14 0.28,-0.21 z m 1.26,8.25 c 0,0 0.18,-0.24 0.46,-0.61 0.33,0.39 0.6,0.73 0.74,0.94 0.46,0.73 0.99,2.11 0.99,2.11 0,0 -0.79,-0.24 -1.6,-0.56 -0.35,-1.12 -0.59,-1.88 -0.59,-1.88 z m 7.51,-7.61 c -0.06,-0.22 1.54,-2.53 1.86,-3.48 0.28,-0.82 0.09,-4.73 0.04,-5.75 0.16,0 0.33,0 0.51,0 0.36,2.97 0.83,7.05 0.66,7.46 -0.12,0.3 -0.66,1.76 -1.36,3.55 -0.78,-0.75 -1.66,-1.64 -1.71,-1.78 z m 2.9,-9.13 c -0.01,-0.03 -0.02,-0.07 -0.03,-0.1 0.66,0.01 1.36,0.03 2.06,0.07 0.01,0.17 0.02,0.31 0.03,0.42 0.08,0.72 0.59,4.34 0.46,4.5 -0.12,0.17 -1.64,1.85 -1.64,1.85 0,0 -0.09,-0.42 -0.09,-1.09 0.01,-0.68 -0.58,-4.76 -0.79,-5.65 z m 2.53,0.21 c 0,-0.05 -0.02,-0.13 -0.03,-0.22 0.53,0.03 1.04,0.06 1.53,0.1 -0.36,1.49 -0.74,3.74 -0.74,3.74 0,0 -0.72,-3.16 -0.76,-3.62 z m 2.19,-0.06 c 0.36,0.03 0.69,0.07 0.97,0.1 0.08,0.01 0.16,0.02 0.24,0.03 -0.02,0.27 -0.03,0.53 -0.05,0.77 -1.02,0.95 -1.53,1.56 -1.5,1.14 0.01,-0.21 0.15,-1.02 0.34,-2.04 z m 10.43,-11.55 c -0.02,0.16 -0.04,0.28 -0.04,0.28 l -0.1,-0.26 c 0.05,-0.01 0.1,-0.02 0.14,-0.02 z m -47.45,-14.26 c 0,0 -0.68,-0.7 -0.94,-1 -0.26,-0.3 -1.17,-0.63 -1.47,-0.78 -0.19,-0.1 -0.76,-0.39 -1.16,-0.6 0.19,-0.02 0.38,-0.03 0.55,-0.04 1.07,0.22 1.98,0.37 3.09,0.51 0.14,0.02 0.27,0.04 0.42,0.06 -0.07,0.24 -0.17,0.51 -0.27,0.77 -0.26,0.66 -0.22,1.08 -0.22,1.08 z m 0.76,0.88 c -0.16,-0.35 -0.45,-0.96 -0.42,-1.12 0.02,-0.1 0.22,-0.89 0.4,-1.57 1.06,0.18 2.11,0.44 2.69,0.68 -0.12,0.49 -0.26,1.08 -0.31,1.25 -0.09,0.3 -0.56,0.89 -0.88,1.37 -0.32,0.48 -0.41,1.09 -0.41,1.09 0,0 -0.91,-1.34 -1.07,-1.7 z m 1.28,1.94 c 0,0 0.08,-0.46 0.19,-0.84 0.11,-0.37 0.39,-0.77 0.51,-0.93 0.12,-0.15 0.43,-0.7 0.57,-0.98 0.14,-0.28 0.76,-0.86 0.76,-0.86 l -0.73,0.64 c 0,0 0.11,-0.49 0.21,-0.93 0.69,0.3 1.94,0.71 3.07,0.79 1.15,0.08 2.97,0.21 3.74,0.3 0.31,0.04 0.84,0.06 1.41,0.07 0.17,0.1 0.32,0.18 0.41,0.22 0.21,0.1 0.72,0.36 1.09,0.63 0.37,0.27 0.8,0.63 0.8,0.63 0,0 -0.08,0.81 -0.15,1.58 -0.16,0.01 -0.32,0.02 -0.47,0.03 -2.24,0.17 -4.73,1 -6.05,1.58 -0.52,0.23 -1.27,0.47 -2.14,0.69 -0.76,-0.64 -3.22,-2.62 -3.22,-2.62 z m 0.35,13.42 c 0.92,0.28 1.92,0.5 2.68,0.61 1.03,0.15 2.86,0.28 4.6,0.29 0.54,0.68 0.94,1.37 1.27,1.98 -0.28,0.01 -0.53,0.02 -0.76,0.02 -1.48,0.05 -3.63,0.85 -2.95,1.38 0.68,0.53 2.16,0.8 0.23,1.17 -1.66,0.32 -2.61,0.37 -3.27,0.64 -0.39,-1.07 -0.7,-2.16 -0.82,-3.07 -0.13,-0.92 -0.53,-2.01 -0.98,-3.02 z m 4.14,10.52 c -0.32,-0.27 -0.72,-0.87 -1.14,-1.65 0.09,0.01 0.16,0.03 0.19,0.05 0.23,0.21 2.27,0.37 3.69,0.21 0.61,-0.07 1.49,-0.16 2.42,-0.24 0.01,0.47 0.04,1.92 0.05,3.01 -0.82,-0.06 -1.62,-0.12 -2.07,-0.16 -0.39,-0.04 -1.11,-0.07 -1.82,-0.08 -0.48,-0.41 -0.93,-0.81 -1.32,-1.14 z m 3.8,12.14 c -0.53,-1.12 0,-1.52 -2.9,-1.98 -2.91,-0.46 -2.91,-0.92 -3.63,-1.85 -0.3,-0.38 -0.4,-0.62 -0.5,-0.78 1.65,-0.03 4.09,0.11 5.42,0.27 1.67,0.21 4.21,0.45 5.31,0.57 0.77,0.09 1.97,0.07 2.92,0.01 0.38,0.61 0.82,1.33 1.14,1.9 -0.17,0.47 -0.36,1.06 -0.38,1.29 -0.04,0.42 -0.34,0.84 -0.34,0.84 l -1.22,-2.32 c 0,0 0.29,1.35 0.42,1.64 0.13,0.29 0.68,1.18 0.72,1.47 0.03,0.17 0.02,0.81 0.01,1.36 -0.94,-0.99 -4.11,-3.43 -4.11,-3.43 l 2.64,2.84 c 0,0 0.63,0.51 1.46,1.12 0,0.14 0,0.25 0,0.29 0,0.21 -0.04,0.88 -0.04,0.88 0,0 0.01,0.36 0.03,0.87 -1.06,-0.44 -2.07,-0.82 -2.82,-1.06 -2.54,-0.76 -3.6,-2.81 -4.13,-3.93 z m 7.02,11.6 c -0.04,0.34 -0.12,1.09 -0.12,1.09 0,0 -1.39,-1.6 -1.56,-1.94 -0.17,-0.34 -1.39,-2.02 -1.43,-2.31 -0.04,-0.3 0.17,-2.02 0.17,-2.02 l -0.29,0.67 -0.25,0.84 c 0,0 -0.29,-1.47 -0.34,-1.89 -0.02,-0.2 -0.18,-0.64 -0.34,-1.06 1.01,0.39 1.96,0.79 2.37,1.09 0.29,0.21 0.96,0.63 1.76,1.11 0.02,0.76 0.04,1.43 0.04,1.68 -0.01,0.72 0.03,2.41 -0.01,2.74 z m 0.47,-4.12 c 0.54,0.32 1.1,0.65 1.65,0.96 -0.19,0.39 -0.39,0.81 -0.47,0.93 -0.17,0.25 -0.76,1.14 -0.76,1.14 z m 3.2,12.33 c 0,0 -3.12,-5.98 -2.95,-6.44 0.17,-0.46 0.51,-2.23 0.63,-2.4 0.08,-0.11 0.55,-1.53 0.86,-2.47 0.43,0.25 0.84,0.48 1.2,0.69 0.59,2.38 1.33,5.3 1.65,5.99 0.42,0.93 0.66,7.1 0.76,9.96 -0.5,-0.74 -1.39,-2.12 -1.39,-2.63 -0.01,-0.72 -0.76,-2.7 -0.76,-2.7 z m 3.91,-5.48 c -0.09,-0.96 -1.39,-5.4 -2.26,-8.29 0.95,0.4 1.76,0.72 1.87,0.76 0.2,0.07 1.37,2.24 1.78,2.94 0,0 0,0 0,0 -0.78,2.89 -1.31,5.45 -1.39,4.59 z m 0.89,2.41 c 0.14,-0.29 0.71,-2.08 1.38,-4.27 0,0 0,0 0,0 -0.34,1.11 -0.21,3.78 -0.28,4.31 -0.07,0.53 0.72,5.21 0.49,7.23 0,0 0,0 0,0 -0.51,-2.2 -1.91,-6.63 -1.59,-7.27 z m 3.87,-4.26 c -0.13,0.73 -1.32,10.5 -1.32,10.5 0,0 -0.99,-5.55 -0.73,-6.47 0.26,-0.92 0.66,-3.96 0.86,-4.69 0.08,-0.3 -0.01,-1.65 -0.16,-3.18 0.74,-2.45 1.38,-4.61 1.51,-5.04 0.12,-0.38 0.58,-1.64 1.13,-3.08 0.22,0.45 0.35,0.98 0.35,1.65 0.01,1.86 -1.51,9.59 -1.64,10.31 z m 3.84,-15.58 c -0.37,0.52 -0.97,3.37 -0.97,3.37 0,0 0.15,-1.08 -0.47,-1.66 -0.07,-0.07 -0.16,-0.15 -0.26,-0.25 0.71,-1.83 1.36,-3.44 1.45,-3.51 0.21,-0.17 2.06,-2.69 2.4,-2.99 0.34,-0.3 1.31,-1.73 1.6,-2.15 0.07,-0.1 0.4,-0.4 0.85,-0.78 -0.06,0.87 -0.25,2.29 -0.83,3.17 -0.64,0.98 -3.4,4.28 -3.77,4.8 z m 5.79,-7.97 c 0,0 -0.04,-0.43 -0.06,-0.95 0.3,-0.24 0.6,-0.49 0.89,-0.72 0.56,0.06 1.13,0.12 1.68,0.18 -1.25,0.71 -2.51,1.49 -2.51,1.49 z m 16.66,-13.63 c 0.1,0.01 0.2,0.02 0.31,0.02 -2.06,1.77 -5.12,4.18 -6.73,4.9 -0.02,0 -0.04,0 -0.06,0.01 -0.44,-0.12 -0.84,-0.24 -1.12,-0.35 -0.6,-0.25 -1.54,-0.56 -2.56,-0.78 0.22,-0.29 0.43,-0.55 0.54,-0.66 0.28,-0.27 0.76,-0.75 0.91,-0.77 0.16,-0.03 2.22,-0.22 2.58,-0.25 0.36,-0.02 0.92,-0.31 1.17,-0.45 0.25,-0.14 0.79,-0.54 0.76,-0.53 -0.03,0.01 -0.87,0.5 -1.18,0.64 -0.32,0.14 -0.72,0.08 -0.72,0.08 0,0 0.1,-0.37 0.31,-0.67 0.21,-0.3 0.33,-0.85 0.33,-0.85 0,0 0.08,-0.56 -0.03,0 -0.12,0.55 -0.73,1.38 -0.87,1.48 -0.14,0.1 -0.9,0.15 -1.6,0.14 -0.7,-0.02 -1.08,0.16 -1.08,0.16 0,0 0.43,-0.88 0.62,-1.22 0.1,-0.19 0.15,-0.55 0.18,-0.9 0.23,-0.05 0.45,-0.1 0.63,-0.17 1.97,-0.74 5.45,0.01 7.61,0.17 z m -1.67,-12.09 c -0.54,0.24 -1.8,0.82 -2.07,0.9 -0.27,0.08 -0.87,0.26 -0.87,0.26 0,0 0.75,-1.58 0.95,-1.82 0.05,-0.06 0.14,-0.2 0.26,-0.37 1.58,-0.01 3.2,-0.1 4.42,-0.23 -0.93,0.45 -2.33,1.11 -2.69,1.26 z"
                   id="path10"
                   style="fill:#5b3832" />
              </g>
              <g
                 id="g11">
                <path
                   class="st3"
                   d="m 259,116.39 c 0,0 1.4,-3.54 4.21,-0.29 2.8,3.25 2.8,3.25 2.8,3.25 0,0 2.2,-2.65 4.01,-3.83 1.8,-1.18 5.21,2.65 5.21,2.65 0,0 -5.39,-2.01 -6.26,-0.96 -0.87,1.05 -2.86,2.48 -2.86,2.48 0,0 0.56,0.23 0.61,0.45 0.05,0.23 -1.63,0.38 -1.58,0.07 0.05,-0.3 0.26,-0.83 0.26,-0.83 0,0 -3.76,-5.6 -6.4,-2.99 z"
                   id="path11"
                   style="fill:#5b3832" />
              </g>
              <g
                 id="g12">
                <path
                   class="st3"
                   d="m 257.88,128.44 c 0,0 0.7,-1.77 2.1,-0.15 1.4,1.62 1.4,1.62 1.4,1.62 0,0 1.1,-1.33 2,-1.92 0.9,-0.59 2.6,1.33 2.6,1.33 0,0 -2.7,-1.01 -3.13,-0.48 -0.43,0.53 -1.43,1.24 -1.43,1.24 0,0 0.28,0.11 0.31,0.23 0.03,0.11 -0.82,0.19 -0.79,0.04 0.03,-0.15 0.13,-0.41 0.13,-0.41 0,0 -1.88,-2.81 -3.19,-1.5 z"
                   id="path12"
                   style="fill:#5b3832" />
              </g>
              <g
                 id="g13">
                <path
                   class="st5"
                   d="m 134.15,131.77 c 0,0 2.07,-3.54 6.2,-0.29 4.13,3.25 4.13,3.25 4.13,3.25 0,0 3.25,-2.66 5.9,-3.84 2.65,-1.18 7.67,2.66 7.67,2.66 0,0 -7.94,-2.02 -9.22,-0.96 -1.28,1.05 -4.21,2.48 -4.21,2.48 0,0 0.83,0.22 0.9,0.45 0.08,0.23 -2.4,0.38 -2.33,0.07 0.07,-0.3 0.37,-0.83 0.37,-0.83 0,0 -5.53,-5.6 -9.41,-2.99 z"
                   id="path13"
                   style="fill:#603932" />
              </g>
            </g>
          </g>
          <g
             id="g37">
            <g
               id="g23">
              <g
                 id="g17">
                <g
                   id="g16">
                  <path
                     class="st3"
                     d="m 306.13,321.84 c 0,0 -16.77,-3.44 -29.91,6.51 -13.14,9.95 -16.37,24.58 -17.28,28.33 -0.91,3.75 1.12,6.73 3.9,6.59 2.78,-0.14 22.53,-1.88 30.03,-9.53 7.5,-7.65 12.61,-21.83 13.65,-25.96 1.05,-4.11 1.46,-5.66 -0.39,-5.94 z m -18.48,4.93 c 1.65,-0.41 3.23,-0.66 4.71,-0.81 0.1,0.63 0.45,1.52 1,2.85 0.77,1.89 1.76,5.17 2.56,7.87 -2.79,-3.55 -6.13,-7.79 -6.82,-8.53 -0.41,-0.45 -0.92,-0.94 -1.45,-1.38 z m -17.7,31.59 c -0.19,-2.47 -0.59,-7.43 -0.88,-10.56 1.4,3.24 3.03,7.42 4.07,10.03 -1.19,0.22 -2.28,0.4 -3.19,0.53 z m -5.8,-4.95 c 0.26,-1.1 0.79,-3.36 1.89,-6.16 0.51,3.39 0.94,8.82 1.19,11.39 -2.17,0.06 -3.77,-2.3 -3.08,-5.23 z m 11.73,3.84 c -1.59,-4.14 -4.91,-12.73 -5.51,-13.95 -0.34,-0.69 -0.79,-1.5 -1.3,-2.17 2.03,-3.33 4.84,-6.8 8.77,-9.76 2.21,-1.67 4.55,-2.84 6.86,-3.69 0.43,0.67 1.26,1.56 2.5,2.89 2.62,2.8 7.29,8.8 9.4,11.43 -1.77,3.11 -3.9,6.25 -6.26,8.67 -3.26,3.34 -9.33,5.4 -14.46,6.58 z m 25.65,-26.37 c -0.31,1.28 -1.21,3.68 -2.53,6.49 -1.01,-3.6 -2.63,-9.27 -2.99,-10.15 -0.19,-0.46 -0.43,-0.98 -0.73,-1.45 3.51,-0.06 5.89,0.4 5.89,0.4 1.47,0.24 1.16,1.46 0.36,4.71 z"
                     id="path15"
                     style="fill:#5b3832" />
                  <path
                     class="st3"
                     d="m 282.94,336.36 c 0,0 -3.59,0 -5.36,2.26 -1.78,2.26 -2.68,6.06 -0.89,7.85 1.79,1.79 4.41,2.69 7.26,1.43 2.85,-1.25 4.91,-3.5 4.52,-6.45 -0.38,-2.95 -1.84,-4.91 -5.53,-5.09 z"
                     id="path16"
                     style="fill:#5b3832" />
                </g>
              </g>
              <g
                 id="g18">
                <path
                   class="st6"
                   d="m 295.22,273.09 c 0,0 -0.61,-1.95 0.65,-2.83 1.29,-0.9 14.68,-9.7 17.23,-11.34 2.67,-1.71 6.57,-5.73 7.38,-4.29 0.8,1.42 2.41,8.04 3.29,10.83 0.86,2.74 3.97,21.68 4.22,22.2 0.25,0.52 0.14,0.74 -2.51,1.85 -2.54,1.06 -13.49,3.82 -14.89,4.03 -1.37,0.2 -2.47,-4.11 -3.27,-7.44 -0.83,-3.42 -1.98,-7.23 -1.98,-7.23 0,0 -0.44,-0.22 2.31,-1.35 2.89,-1.2 3.54,-1.88 4.04,1.21 0.48,3 0.14,5.83 1.44,5.77 1.32,-0.06 7.08,0.19 6.74,-2.69 -0.35,-2.95 -2.92,-9.86 -3.19,-12.44 -0.28,-2.65 -1.99,-2.08 -3.48,-1.37 -1.46,0.69 -9.67,6.65 -10.62,7.29 -0.93,0.62 -1.86,2.42 -0.78,4.88 1.06,2.42 6.19,19.48 6.73,20.59 0.54,1.1 0.86,2.39 0.15,2.52 -0.7,0.14 -2.79,2.81 -4.04,-1.25 -1.3,-4.21 -7.79,-23.39 -8.47,-25.21 -0.69,-1.83 -0.95,-3.73 -0.95,-3.73 z"
                   id="path17"
                   style="fill:#d45840" />
                <path
                   class="st6"
                   d="m 311.35,297.35 c 0,0 2.56,-0.34 6.21,-1.21 3.88,-0.91 11.09,-3.41 11.34,-2.91 0.25,0.5 0.18,0.15 0.56,1.34 0.37,1.19 1.48,3.08 0.39,3.65 -1.06,0.56 -10.92,3.04 -13.27,3.49 -2.27,0.44 -3.84,1.05 -4.22,0.51 -0.37,-0.53 -1.9,-4.84 -1.01,-4.87 z"
                   id="path18"
                   style="fill:#d45840" />
              </g>
              <path
                 class="st3"
                 d="m 255.01,272.1 c 1.48,1.9 0.74,4.91 -1.61,6.69 -2.34,1.78 -5.42,1.66 -6.87,-0.26 -1.46,-1.92 -1.78,-4.46 1.61,-6.69 2.45,-1.6 4.98,-2.17 6.87,0.26 z"
                 id="path19"
                 style="fill:#5b3832" />
              <path
                 class="st6"
                 d="m 267.01,323.1 c -1.16,3.57 -5.69,5.25 -10.04,3.79 -4.35,-1.46 -6.89,-5.53 -5.69,-9.09 1.2,-3.55 4.2,-6.2 10.03,-3.79 4.24,1.76 7.2,4.52 5.7,9.09 z"
                 id="path20"
                 style="fill:#d45840" />
              <path
                 class="st1"
                 d="m 291.09,303.44 c -1.11,-6.42 -10.71,-29.25 -10.71,-29.25 0,0 -2.77,-7.88 -6.83,-5.05 -3.95,2.76 -21.6,22.33 -24.61,26.24 -2.97,3.85 0.82,3.3 5.56,4.8 5.02,1.59 22.69,6.3 27.19,6.49 4.68,0.2 10.54,3.39 9.4,-3.23 z m -14.43,-4.09 c -2.4,-0.01 -12.34,-2.34 -15.32,-3.18 -2.88,-0.81 -5.21,-0.44 -3.42,-2.72 1.81,-2.3 12.16,-13.54 14.41,-15.04 2.28,-1.53 3.79,3.05 3.79,3.05 0,0 4.96,12.64 5.46,16.04 0.52,3.45 -2.46,1.88 -4.92,1.85 z"
                 id="path21"
                 style="fill:#f3af27" />
              <g
                 id="g22">
                <path
                   class="st3"
                   d="m 262.41,259.83 c -0.04,0 -0.08,0 -0.12,0 -0.6,-0.04 -1.14,-0.4 -1.42,-0.94 l -12.17,-24.03 -6.89,9.36 c -0.56,0.76 -1.64,0.93 -2.4,0.37 -0.76,-0.56 -0.93,-1.64 -0.36,-2.4 l 8.54,-11.6 c 0.35,-0.48 0.92,-0.74 1.53,-0.69 0.59,0.05 1.12,0.4 1.39,0.94 l 12.12,23.94 13.74,-19.99 c 0.34,-0.5 0.92,-0.77 1.53,-0.74 0.6,0.04 1.14,0.39 1.42,0.93 l 10.18,19.91 20.77,-19.92 c 0.63,-0.6 1.6,-0.64 2.27,-0.09 l 14.19,11.57 c 0.73,0.6 0.84,1.68 0.24,2.42 -0.6,0.73 -1.68,0.85 -2.41,0.24 l -13.01,-10.62 -21.34,20.47 c -0.39,0.38 -0.94,0.54 -1.47,0.45 -0.53,-0.09 -1,-0.43 -1.24,-0.91 l -9.92,-19.4 -13.75,20 c -0.33,0.45 -0.86,0.73 -1.42,0.73 z"
                   id="path22"
                   style="fill:#5b3832" />
              </g>
            </g>
            <g
               id="g36">
              <path
                 class="st6"
                 d="m 314.24,215.85 c 1.5,-2.16 5.43,-11.86 5.43,-11.86 0,0 1.71,-3.62 -0.64,-3.71 -2.36,-0.09 -16.19,2.45 -18.88,3.13 -2.69,0.68 -0.67,1.54 1.06,3.4 1.73,1.86 7.36,7.36 8.93,8.29 1.57,0.93 2.61,2.91 4.1,0.75 z m -3.75,-4.11 c -0.88,-0.52 -4.06,-3.62 -5.03,-4.67 -0.97,-1.04 -2.11,-1.53 -0.6,-1.91 1.51,-0.38 9.3,-1.81 10.63,-1.76 1.32,0.05 0.36,2.09 0.36,2.09 0,0 -2.22,5.47 -3.06,6.68 -0.84,1.21 -1.42,0.1 -2.3,-0.43 z"
                 id="path23"
                 style="fill:#d45840" />
              <path
                 class="st2"
                 d="m 237.14,209.94 c 1.5,-2.16 5.43,-11.87 5.43,-11.87 0,0 1.71,-3.62 -0.64,-3.71 -2.36,-0.09 -16.19,2.45 -18.88,3.13 -2.69,0.68 -0.67,1.54 1.06,3.4 1.73,1.86 7.36,7.36 8.93,8.29 1.56,0.95 2.6,2.92 4.1,0.76 z m -3.76,-4.1 c -0.88,-0.52 -4.05,-3.62 -5.02,-4.67 -0.97,-1.04 -2.11,-1.53 -0.6,-1.91 1.51,-0.38 9.3,-1.81 10.63,-1.76 1.32,0.05 0.36,2.09 0.36,2.09 0,0 -2.21,5.47 -3.06,6.68 -0.84,1.2 -1.43,0.09 -2.31,-0.43 z"
                 id="path24"
                 style="fill:#949844" />
              <path
                 class="st1"
                 d="m 329.06,203.45 c -1.13,1.45 -4.49,8.8 -5.47,11.22 -0.97,2.42 -2.54,3.95 0.13,3.73 2.67,-0.22 16.1,-2.35 18.22,-3.22 2.12,-0.88 -0.61,-3.89 -0.61,-3.89 0,0 -6.71,-8.31 -8.77,-9.95 -2.06,-1.64 -2.38,0.67 -3.5,2.11 z m 3.36,2.03 c 1.16,0.92 4.94,5.6 4.94,5.6 0,0 1.53,1.7 0.34,2.19 -1.19,0.49 -8.75,1.69 -10.25,1.81 -1.51,0.12 -0.62,-0.74 -0.07,-2.1 0.55,-1.36 2.44,-5.5 3.08,-6.31 0.63,-0.82 0.8,-2.12 1.96,-1.19 z"
                 id="path25"
                 style="fill:#f3af27" />
              <path
                 class="st1"
                 d="m 261.24,201.93 c -1.76,0.5 -8.82,4.45 -11.03,5.83 -2.22,1.38 -4.38,1.69 -2.1,3.09 2.29,1.4 14.38,7.61 16.61,8.15 2.23,0.54 1.81,-3.5 1.81,-3.5 0,0 -0.51,-10.67 -1.21,-13.21 -0.7,-2.54 -2.32,-0.87 -4.08,-0.36 z m 1.53,3.62 c 0.39,1.43 0.68,7.43 0.68,7.43 0,0 0.23,2.28 -1.02,1.97 -1.25,-0.31 -8.06,-3.8 -9.35,-4.59 -1.29,-0.79 -0.07,-0.96 1.18,-1.73 1.25,-0.78 5.22,-3 6.21,-3.28 1,-0.29 1.91,-1.23 2.3,0.2 z"
                 id="path26"
                 style="fill:#f3af27" />
              <g
                 id="g30">
                <g
                   id="g27">
                  <path
                     class="st0"
                     d="m 341.39,201.28 c -0.25,-0.44 -0.2,-0.94 0.12,-1.12 0.06,-0.03 6.08,-3.44 8.8,-4.83 2.34,-1.2 6.7,-3.11 7.69,-3.56 0.33,-0.15 0.91,0.04 1.14,0.49 0.23,0.45 0.14,0.94 -0.19,1.09 -0.05,0.02 -5.07,2.21 -7.76,3.6 -2.7,1.39 -8.7,4.78 -8.76,4.82 -0.33,0.17 -0.79,-0.05 -1.04,-0.49 z"
                     id="path27"
                     style="fill:#ffffff" />
                </g>
                <g
                   id="g28">
                  <path
                     class="st0"
                     d="m 346.81,209.75 c -0.25,-0.44 -0.21,-0.94 0.1,-1.11 0.06,-0.03 5.85,-3.31 8.47,-4.65 2.25,-1.16 6.16,-3.5 7.12,-3.93 0.32,-0.14 0.89,0.06 1.11,0.5 0.23,0.45 0.15,0.93 -0.17,1.07 -0.05,0.02 -4.59,2.64 -7.19,3.97 -2.6,1.34 -8.38,4.6 -8.44,4.63 -0.3,0.18 -0.75,-0.04 -1,-0.48 z"
                     id="path28"
                     style="fill:#ffffff" />
                </g>
                <g
                   id="g29">
                  <path
                     class="st0"
                     d="m 360.99,195.99 c 0.25,0.44 0.2,0.96 -0.12,1.16 -0.06,0.04 -6.35,3.47 -9.1,5.04 -2.37,1.35 -6.58,3.87 -7.58,4.37 -0.33,0.17 -0.92,0 -1.15,-0.44 -0.23,-0.45 -0.14,-0.96 0.2,-1.12 0.05,-0.02 4.93,-2.87 7.65,-4.42 2.73,-1.56 9.01,-4.98 9.07,-5.02 0.31,-0.21 0.78,-0.01 1.03,0.43 z"
                     id="path29"
                     style="fill:#ffffff" />
                </g>
              </g>
              <g
                 id="g34">
                <g
                   id="g31">
                  <path
                     class="st2"
                     d="m 271.98,205.5 c -0.02,-0.51 0.27,-0.93 0.63,-0.94 0.07,0 6.98,-0.2 10.04,-0.17 2.63,0.03 7.37,0.37 8.46,0.44 0.36,0.02 0.79,0.46 0.78,0.96 -0.01,0.51 -0.32,0.9 -0.68,0.87 -0.05,0 -5.51,-0.4 -8.54,-0.43 -3.03,-0.03 -9.93,0.17 -10,0.18 -0.37,0 -0.67,-0.4 -0.69,-0.91 z"
                     id="path30"
                     style="fill:#949844" />
                </g>
                <g
                   id="g32">
                  <path
                     class="st2"
                     d="m 272.83,215.52 c -0.01,-0.51 0.25,-0.93 0.6,-0.94 0.07,0 6.72,-0.2 9.66,-0.16 2.53,0.03 7.08,-0.23 8.13,-0.15 0.35,0.02 0.76,0.46 0.75,0.96 -0.01,0.51 -0.3,0.9 -0.65,0.87 -0.05,-0.01 -5.29,0.19 -8.21,0.16 -2.92,-0.03 -9.56,0.16 -9.63,0.16 -0.34,0.01 -0.64,-0.4 -0.65,-0.9 z"
                     id="path31"
                     style="fill:#949844" />
                </g>
                <g
                   id="g33">
                  <path
                     class="st2"
                     d="m 291.79,209.95 c 0.02,0.51 -0.27,0.94 -0.65,0.97 -0.07,0.01 -7.24,0.11 -10.4,0.21 -2.72,0.09 -7.62,0.36 -8.75,0.33 -0.37,-0.01 -0.82,-0.43 -0.81,-0.93 0.01,-0.51 0.32,-0.91 0.7,-0.9 0.05,0 5.7,-0.24 8.83,-0.34 3.14,-0.1 10.29,-0.21 10.36,-0.21 0.38,-0.03 0.7,0.36 0.72,0.87 z"
                     id="path32"
                     style="fill:#949844" />
                </g>
              </g>
              <path
                 class="st1"
                 d="m 365.81,188.84 c 1.43,-1.04 3.63,-0.42 4.88,1.34 1.25,1.76 1.09,4.02 -0.35,5.04 -1.44,1.02 -3.32,1.2 -4.87,-1.34 -1.13,-1.84 -1.49,-3.71 0.34,-5.04 z"
                 id="path34"
                 style="fill:#f3af27" />
              <path
                 class="st0"
                 d="m 249.86,198.25 c 0.04,-1.19 1.28,-2.11 2.74,-2.04 1.46,0.07 2.59,1.09 2.54,2.28 -0.05,1.19 -0.74,2.27 -2.73,2.04 -1.45,-0.16 -2.6,-0.75 -2.55,-2.28 z"
                 id="path35"
                 style="fill:#ffffff" />
              <path
                 class="st0"
                 d="m 301.77,216.25 c -0.33,1.02 -1.62,1.5 -2.86,1.08 -1.24,-0.42 -1.96,-1.58 -1.62,-2.59 0.34,-1.01 1.2,-1.77 2.86,-1.08 1.2,0.49 2.04,1.28 1.62,2.59 z"
                 id="path36"
                 style="fill:#ffffff" />
            </g>
          </g>
        </g>
      </g>
    </g>
  </g>
</svg>
